HIERARCHY
ROOT root
{
  OFFSET 0 93.2929 0
  CHANNELS 6 Xposition Yposition Zposition Zrotation Xrotation Yrotation
  JOINT torso_1
  {
    OFFSET 0 5.07867 -1.15138
    CHANNELS 6 Xposition Yposition Zposition Zrotation Xrotation Yrotation
    JOINT torso_2
    {
      OFFSET 0 5.61661 1.07143
      CHANNELS 6 Xposition Yposition Zposition Zrotation Xrotation Yrotation
      JOINT torso_3
      {
        OFFSET -1.02604e-17 5.98978 0.11501
        CHANNELS 6 Xposition Yposition Zposition Zrotation Xrotation Yrotation
        JOINT torso_4
        {
          OFFSET -1.10457e-17 6.50583 -0.443523
          CHANNELS 6 Xposition Yposition Zposition Zrotation Xrotation Yrotation
          JOINT torso_5
          {
            OFFSET -1.97295e-17 7.60548 -1.50593
            CHANNELS 6 Xposition Yposition Zposition Zrotation Xrotation Yrotation
            JOINT torso_6
            {
              OFFSET -2.53307e-17 9.49737 -0.914492
              CHANNELS 6 Xposition Yposition Zposition Zrotation Xrotation Yrotation
              JOINT torso_7
              {
                OFFSET -2.90401e-17 10.5513 1.57691
                CHANNELS 6 Xposition Yposition Zposition Zrotation Xrotation Yrotation
                JOINT neck_1
                {
                  OFFSET -1.29193e-17 4.78644 0.715339
                  CHANNELS 6 Xposition Yposition Zposition Zrotation Xrotation Yrotation
                  JOINT neck_2
                  {
                    OFFSET -1.8116e-17 4.82109 0.421791
                    CHANNELS 6 Xposition Yposition Zposition Zrotation Xrotation Yrotation
                    JOINT head
                    {
                      OFFSET -2.00958e-17 4.83041 0.765062
                      CHANNELS 6 Xposition Yposition Zposition Zrotation Xrotation Yrotation
                      End Site
                      {
                        OFFSET 0 0.1 0
                      }
                    }
                  }
                }
                JOINT l_shoulder
                {
                  OFFSET 1.23299 -7.60731 7.53374
                  CHANNELS 6 Xposition Yposition Zposition Zrotation Xrotation Yrotation
                  JOINT l_up_arm
                  {
                    OFFSET 12.9547 3.2495 -3.26872
                    CHANNELS 6 Xposition Yposition Zposition Zrotation Xrotation Yrotation
                    JOINT l_low_arm
                    {
                      OFFSET 29.2081 0.0598081 0.137039
                      CHANNELS 6 Xposition Yposition Zposition Zrotation Xrotation Yrotation
                      JOINT l_hand
                      {
                        OFFSET 24.234 0.0496219 0.113701
                        CHANNELS 6 Xposition Yposition Zposition Zrotation Xrotation Yrotation
                        End Site
                        {
                          OFFSET 0.1 0 0
                        }
                      }
                    }
                  }
                }
                JOINT r_shoulder
                {
                  OFFSET -1.23299 -7.60729 7.53365
                  CHANNELS 6 Xposition Yposition Zposition Zrotation Xrotation Yrotation
                  JOINT r_up_arm
                  {
                    OFFSET -12.9547 3.2495 -3.26872
                    CHANNELS 6 Xposition Yposition Zposition Zrotation Xrotation Yrotation
                    JOINT r_low_arm
                    {
                      OFFSET -29.2081 0.0598081 0.137039
                      CHANNELS 6 Xposition Yposition Zposition Zrotation Xrotation Yrotation
                      JOINT r_hand
                      {
                        OFFSET -24.234 0.0496218 0.113702
                        CHANNELS 6 Xposition Yposition Zposition Zrotation Xrotation Yrotation
                        End Site
                        {
                          OFFSET -0.1 0 0
                        }
                      }
                    }
                  }
                }
              }
            }
          }
        }
      }
    }
  }
  JOINT l_up_leg
  {
    OFFSET 9.23673 -4.20556 2.0327
    CHANNELS 6 Xposition Yposition Zposition Zrotation Xrotation Yrotation
    JOINT l_low_leg
    {
      OFFSET -0.852353 -38.7721 -0.655187
      CHANNELS 6 Xposition Yposition Zposition Zrotation Xrotation Yrotation
      JOINT l_foot
      {
        OFFSET -2.32622 -40.4017 -6.04875
        CHANNELS 6 Xposition Yposition Zposition Zrotation Xrotation Yrotation
        JOINT l_toes
        {
          OFFSET 0.779096 -9.8844 12.4959
          CHANNELS 6 Xposition Yposition Zposition Zrotation Xrotation Yrotation
          End Site
          {
            OFFSET 0 0 0.1
          }
        }
      }
    }
  }
  JOINT r_up_leg
  {
    OFFSET -9.23673 -4.20556 2.0327
    CHANNELS 6 Xposition Yposition Zposition Zrotation Xrotation Yrotation
    JOINT r_low_leg
    {
      OFFSET 0.852353 -38.7721 -0.655187
      CHANNELS 6 Xposition Yposition Zposition Zrotation Xrotation Yrotation
      JOINT r_foot
      {
        OFFSET 2.32622 -40.4017 -6.04875
        CHANNELS 6 Xposition Yposition Zposition Zrotation Xrotation Yrotation
        JOINT r_toes
        {
          OFFSET -0.779096 -9.8844 12.4959
          CHANNELS 6 Xposition Yposition Zposition Zrotation Xrotation Yrotation
          End Site
          {
            OFFSET 0 0 0.1
          }
        }
      }
    }
  }
}
MOTION
Frames: 5
Frame Time: 0.016667
0 93.2929 0 -0 0 -0 0 5.07867 -1.15138 -0 0 -0 0 5.61661 1.07143 -0 0 -0 -1.02604e-17 5.98978 0.11501 -0 0 -0 -1.10457e-17 6.50583 -0.443523 -0 0 -0 -1.97295e-17 7.60548 -1.50593 -0 0 -0 -2.53307e-17 9.49737 -0.914492 -0 0 -0 -2.90401e-17 10.5513 1.57691 -0 0 -0 -1.29193e-17 4.78644 0.715339 -0 0 -0 -1.8116e-17 4.82109 0.421791 -0 0 -0 -2.00958e-17 4.83041 0.765062 -0 0 -0 1.23299 -7.60731 7.53374 -0 0 -0 12.9547 3.2495 -3.26872 -0 0 -0 29.2081 0.0598081 0.137039 -0 0 -0 24.234 0.0496219 0.113701 -0 0 -0 -1.23299 -7.60729 7.53365 -0 0 -0 -12.9547 3.2495 -3.26872 -0 0 -0 -29.2081 0.0598081 0.137039 -0 0 -0 -24.234 0.0496218 0.113702 -0 0 -0 9.23673 -4.20556 2.0327 -0 0 -0 -0.852353 -38.7721 -0.655187 -0 0 -0 -2.32622 -40.4017 -6.04875 -0 0 -0 0.779096 -9.8844 12.4959 -0 0 -0 -9.23673 -4.20556 2.0327 -0 0 -0 0.852353 -38.7721 -0.655187 -0 0 -0 2.32622 -40.4017 -6.04875 -0 0 -0 -0.779096 -9.8844 12.4959 -0 0 -0 
7.98032 92.1558 47.4405 8.21421 -6.35628 0.454664 0 5.07867 -1.15138 -3.06211 4.69862 0.445583 0 5.61661 1.07143 -2.36725 3.27027 0.134929 -1.02604e-17 5.98978 0.11501 -1.77355 2.05102 0.20784 -1.10457e-17 6.50583 -0.443523 -1.11681 -0.617319 0.180462 -1.97295e-17 7.60548 -1.50593 -0.380688 -1.77708 0.250304 -2.53307e-17 9.49737 -0.914492 0.380032 -3.63028 -0.0887351 -2.90401e-17 10.5513 1.57691 -0.00619563 1.05694 -0.12659 -1.29193e-17 4.78644 0.715339 0.832802 8.58388 1.08172 -1.8116e-17 4.82109 0.421791 0.662835 -3.44714 0.316609 -2.00958e-17 4.83041 0.765062 -0.895535 -5.99245 0.436114 1.23299 -7.60731 7.53374 18.9498 4.6603 2.69155 12.9547 3.2495 -3.26872 -103.326 25.5944 9.16206 29.2081 0.0598081 0.137039 3.88415 -0.631113 -19.0436 24.234 0.0496219 0.113701 -4.69506 -20.8317 -0.443318 -1.23299 -7.60729 7.53365 -17.2621 4.39492 -3.70028 -12.9547 3.2495 -3.26872 101.824 24.6319 -9.43979 -29.2081 0.0598081 0.137039 -3.60883 -0.541289 17.6492 -24.234 0.0496218 0.113702 6.14591 -14.9863 0.564939 9.23673 -4.20556 2.0327 -7.99042 1.20328 -13.4844 -0.852353 -38.7721 -0.655187 -0.862172 3.21999 -0.0319821 -2.32622 -40.4017 -6.04875 -0.520614 2.86782 14.9635 0.779096 -9.8844 12.4959 -1.46231e-15 -8.63238e-16 8.05236e-17 -9.23673 -4.20556 2.0327 -8.9151 -2.40323 19.1486 0.852353 -38.7721 -0.655187 1.90881 7.1156 0.00567034 2.32622 -40.4017 -6.04875 -1.61085 -6.55956 -15.288 -0.779096 -9.8844 12.4959 7.4456e-18 -5.93597e-16 -1.27692e-14 
7.98972 92.1502 47.4944 8.22404 -6.38854 0.484023 0 5.07867 -1.15138 -3.06116 4.66045 0.451556 0 5.61661 1.07143 -2.36898 3.25415 0.138176 -1.02604e-17 5.98978 0.11501 -1.77645 2.06055 0.210464 -1.10457e-17 6.50583 -0.443523 -1.12225 -0.561466 0.184303 -1.97295e-17 7.60548 -1.50593 -0.387431 -1.70913 0.255405 -2.53307e-17 9.49737 -0.914492 0.375116 -3.53298 -0.0803334 -2.90401e-17 10.5513 1.57691 -0.00825085 1.05099 -0.125252 -1.29193e-17 4.78644 0.715339 0.819461 8.53266 1.06614 -1.8116e-17 4.82109 0.421791 0.67326 -3.44029 0.310259 -2.00958e-17 4.83041 0.765062 -0.852539 -6.01185 0.483421 1.23299 -7.60731 7.53374 18.6478 4.58812 2.68748 12.9547 3.2495 -3.26872 -103.179 25.3845 9.0009 29.2081 0.0598081 0.137039 3.86631 -0.625073 -18.953 24.234 0.0496219 0.113701 -4.50482 -20.5751 -0.404047 -1.23299 -7.60729 7.53365 -17.0514 4.35127 -3.67954 -12.9547 3.2495 -3.26872 101.604 24.7153 -9.3172 -29.2081 0.0598081 0.137039 -3.59976 -0.538457 17.6035 -24.234 0.0496218 0.113702 6.11099 -15.138 0.616394 9.23673 -4.20556 2.0327 -8.00926 1.23353 -13.495 -0.852353 -38.7721 -0.655187 -0.873188 3.26112 -0.0320773 -2.32622 -40.4017 -6.04875 -0.520875 2.82989 14.9682 0.779096 -9.8844 12.4959 7.90204e-16 -7.68464e-16 -1.42503e-17 -9.23673 -4.20556 2.0327 -8.9199 -2.49222 19.1644 0.852353 -38.7721 -0.655187 1.95987 7.30467 0.00256235 2.32622 -40.4017 -6.04875 -1.68941 -6.55686 -15.2913 -0.779096 -9.8844 12.4959 9.56695e-17 -5.93132e-16 -1.27687e-14 
7.99927 92.1398 47.5493 8.23427 -6.36495 0.519116 0 5.07867 -1.15138 -3.05781 4.64314 0.463647 0 5.61661 1.07143 -2.37049 3.24459 0.150279 -1.02604e-17 5.98978 0.11501 -1.7796 2.06001 0.222645 -1.10457e-17 6.50583 -0.443523 -1.12737 -0.543628 0.197098 -1.97295e-17 7.60548 -1.50593 -0.391697 -1.68647 0.269414 -2.53307e-17 9.49737 -0.914492 0.37494 -3.50201 -0.0650755 -2.90401e-17 10.5513 1.57691 -0.00855615 1.05029 -0.124502 -1.29193e-17 4.78644 0.715339 0.813676 8.53744 1.03886 -1.8116e-17 4.82109 0.421791 0.700577 -3.43674 0.298465 -2.00958e-17 4.83041 0.765062 -0.849022 -6.03667 0.46739 1.23299 -7.60731 7.53374 18.546 4.55429 2.70256 12.9547 3.2495 -3.26872 -103.138 25.2527 8.90278 29.2081 0.0598081 0.137039 3.84737 -0.618696 -18.8569 24.234 0.0496219 0.113701 -4.44354 -20.3037 -0.430562 -1.23299 -7.60729 7.53365 -16.9845 4.33356 -3.70247 -12.9547 3.2495 -3.26872 101.497 24.7526 -9.24725 -29.2081 0.0598081 0.137039 -3.5953 -0.537068 17.581 -24.234 0.0496218 0.113702 6.1186 -15.2634 0.639045 9.23673 -4.20556 2.0327 -8.03061 1.21384 -13.5118 -0.852353 -38.7721 -0.655187 -0.882235 3.2949 -0.0321495 -2.32622 -40.4017 -6.04875 -0.484763 2.77563 14.9654 0.779096 -9.8844 12.4959 -1.516e-16 -8.06632e-16 2.39174e-17 -9.23673 -4.20556 2.0327 -8.92782 -2.63957 19.1578 0.852353 -38.7721 -0.655187 2.01396 7.50483 -0.000914805 2.32622 -40.4017 -6.04875 -1.72699 -6.59287 -15.2987 -0.779096 -9.8844 12.4959 -9.56695e-17 -5.87152e-16 -1.27627e-14 
8.00795 92.1218 47.6035 8.24322 -6.30155 0.541473 0 5.07867 -1.15138 -3.05447 4.64164 0.475345 0 5.61661 1.07143 -2.37211 3.24043 0.163519 -1.02604e-17 5.98978 0.11501 -1.78267 2.0528 0.236259 -1.10457e-17 6.50583 -0.443523 -1.13168 -0.553423 0.211125 -1.97295e-17 7.60548 -1.50593 -0.394236 -1.6959 0.284273 -2.53307e-17 9.49737 -0.914492 0.37652 -3.51641 -0.0499566 -2.90401e-17 10.5513 1.57691 -0.00785492 1.05234 -0.123836 -1.29193e-17 4.78644 0.715339 0.813192 8.54605 1.01292 -1.8116e-17 4.82109 0.421791 0.727047 -3.42543 0.287232 -2.00958e-17 4.83041 0.765062 -0.859294 -6.05109 0.44022 1.23299 -7.60731 7.53374 18.5399 4.55177 2.71868 12.9547 3.2495 -3.26872 -103.154 25.1903 8.86269 29.2081 0.0598081 0.137039 3.83068 -0.613105 -18.7722 24.234 0.0496219 0.113701 -4.42395 -20.0861 -0.49837 -1.23299 -7.60729 7.53365 -17.0044 4.34503 -3.73421 -12.9547 3.2495 -3.26872 101.479 24.768 -9.24091 -29.2081 0.0598081 0.137039 -3.59875 -0.538143 17.5984 -24.234 0.0496218 0.113702 6.13673 -15.3516 0.66169 9.23673 -4.20556 2.0327 -8.04965 1.15254 -13.5104 -0.852353 -38.7721 -0.655187 -0.892609 3.33363 -0.0322257 -2.32622 -40.4017 -6.04875 -0.44534 2.68159 14.9637 0.779096 -9.8844 12.4959 -4.75836e-16 -8.14007e-16 3.12928e-17 -9.23673 -4.20556 2.0327 -8.93753 -2.82778 19.1402 0.852353 -38.7721 -0.655187 2.06801 7.70472 -0.00457909 2.32622 -40.4017 -6.04875 -1.75211 -6.66873 -15.3065 -0.779096 -9.8844 12.4959 6.84578e-16 -6.20737e-16 -1.27963e-14 
